<?xml version="1.0" encoding="utf-8"?>
<!-- Generator: Adobe Illustrator 16.0.3, SVG Export Plug-In . SVG Version: 6.00 Build 0)  -->
<!DOCTYPE svg PUBLIC "-//W3C//DTD SVG 1.1//EN" "http://www.w3.org/Graphics/SVG/1.1/DTD/svg11.dtd">
<svg version="1.1" id="Capa_1" xmlns="http://www.w3.org/2000/svg" xmlns:xlink="http://www.w3.org/1999/xlink" x="0px" y="0px"
	 width="150px" height="150px" viewBox="0 0 150 150" enable-background="new 0 0 150 150" xml:space="preserve">
<g>
	
		<circle fill-rule="evenodd" clip-rule="evenodd" fill="#FCEBED" stroke="#80D7F9" stroke-width="3" stroke-miterlimit="10" cx="74.994" cy="75.324" r="71.833"/>
	<g>
		<path fill-rule="evenodd" clip-rule="evenodd" fill="#0E3449" d="M32.693,131.604c1.364-4.462,3.785-8.358,6.642-11.968
			c3.947-4.987,8.098-9.812,12.038-14.803c3.064-3.882,5.671-8.074,7.479-12.158c-2.533-2.734-4.966-5.231-7.255-7.857
			c-5.48-6.291-9.464-13.345-11.068-21.654c-2.647-13.702,4.255-29.049,16.243-36.221c3.058-1.83,5.938-3.98,8.775-6.148
			c1.927-1.472,3.614-3.23,4.607-5.552c0.199-0.463,0.861-0.971,1.333-0.995c0.34-0.017,0.897,0.678,1.046,1.153
			c0.321,1.029,0.444,2.121,0.672,3.313c0.783-1.151,1.511-2.235,2.255-3.307c0.226-0.326,0.45-0.697,0.769-0.901
			c0.455-0.289,1.146-0.742,1.461-0.582c0.432,0.218,0.818,0.935,0.846,1.458c0.101,1.849,0.04,3.705,0.04,5.615
			c0.214-0.323,0.444-0.669,0.673-1.017c0.559-0.847,1.071-1.728,1.687-2.531c0.469-0.61,1.062-1.51,1.905-0.936
			c0.456,0.311,0.714,1.31,0.636,1.944c-0.548,4.379-1.211,8.743-1.827,13.112c-0.104,0.744-0.44,1.453,0.476,2.093
			c3.909,2.731,7.132,6.177,10.026,9.944c0.107,0.14,0.226,0.27,0.273,0.327c1.723-1.496,3.78-2.231,5.787-3.027
			c0.246-0.098,0.94,0.35,1.094,0.694c1.821,4.06,3.58,8.148,5.354,12.228c-0.182,0.451-0.36,0.899-0.542,1.349
			c-0.546-0.611-1.093-1.223-1.64-1.834c-0.203-0.385-0.423-0.761-0.606-1.154c-1.186-2.546-2.363-5.095-3.545-7.644
			c-0.108-0.75-0.408-1.087-1.128-0.525l0.009-0.005c-0.631,0.222-1.262,0.443-2.053,0.72c0.365,0.69,0.657,1.242,0.949,1.794
			c-0.012,0.07,0.012,0.125,0.071,0.165c0.148,0.283,0.298,0.566,0.447,0.849l-0.011,0c0.208,0.586,0.415,1.173,0.623,1.759
			c0.775,3.599,1.743,7.066,5.986,8.235c-0.044,0.1-0.09,0.2-0.136,0.299c-0.54,0-1.081,0-1.619,0
			c-1.061-0.535-2.122-1.068-3.183-1.602c-0.046-0.028-0.094-0.055-0.141-0.082c0.018,0.062,0.036,0.123,0.055,0.184
			c0.666,1.672,1.262,3.376,2.021,5.004c0.546,1.169,0.241,1.797-0.877,2.271c-1.822,0.774-3.62,1.608-5.431,2.416
			c-1.941,0.867-2.17,0.774-3.107-1.183c-1.25-2.611-2.509-5.218-3.782-7.864c-6.303,2.84-12.493,5.602-18.652,8.431
			c-1.121,0.515-1.815,0.434-2.544-0.629c-1.644-2.392-3.97-3.837-6.799-4.464c-3.909-0.865-7.381,0.956-8.449,4.501
			c-0.62,2.058-0.729,4.163-0.182,6.275c1.072,4.139,3.979,6.656,7.588,8.511c4.509,2.316,9.345,3.349,14.386,3.567
			c0.602,0.025,1.359,0.202,1.749,0.599c0.8,0.816,1.402,1.829,2.084,2.761c1.269,2.344,3.29,3.853,5.596,5.046
			c0.228,0.104,0.455,0.206,0.682,0.311c0.103,0.415,0.206,0.83,0.308,1.245c-0.4,0.011-0.847,0.143-1.192,0.01
			c-0.815-0.313-1.584-0.753-2.372-1.143l0.014,0.022c-0.11-0.071-0.221-0.144-0.33-0.214c-1.716-1.516-3.732-2.809-5.061-4.609
			c-1.291-1.751-2.484-2.156-4.539-1.808c-2,0.339-4.104,0.073-5.947,0.073c-0.704,2.268-1.197,4.285-1.948,6.2
			c-2.048,5.224-5.217,9.805-8.5,14.304c-0.491,0.673-0.631,1.179-0.053,1.834c1.927,2.178,3.67,4.551,5.782,6.53
			c5.343,5.005,11.711,8.45,18.337,11.437c2.264,1.021,4.556,1.977,7.109,3.08c-0.301-0.967-0.506-1.627-0.712-2.287
			c-0.038-0.214-0.071-0.43-0.113-0.642c-0.659-3.366-1.652-6.704-1.905-10.1c-0.461-6.183,1.711-11.856,4.295-17.352
			c0.178-0.381,0.941-0.663,1.439-0.675c0.816-0.02,1.641,0.221,2.461,0.353c-0.904-0.991-1.904-1.714-2.802-2.548
			c-0.308-0.284-0.363-0.842-0.534-1.274c0.462,0.035,1.048-0.097,1.362,0.136c1.483,1.1,2.894,2.299,4.328,3.463
			c0.006,0.784,0.247,1.221,1.105,0.758l0.115-0.006l0.107,0.039c0.054,0.162,0.08,0.447,0.167,0.467
			c0.941,0.217,1.89,0.406,2.844,0.564c0.185,0.03,0.407-0.09,0.6-0.174c0.666-0.288,1.325-0.59,1.988-0.887l-0.008-0.007
			c0.209,0.435,0.431,1.248,0.626,1.242c1.201-0.038,2.397-0.26,3.595-0.42c0.043-0.062,0.096-0.121,0.125-0.188
			c0.011-0.023-0.025-0.082-0.056-0.107c-1.536-1.239-3.098-2.451-4.589-3.744c-0.254-0.219-0.209-0.786-0.3-1.192
			c0.388,0.021,0.858-0.09,1.148,0.089c0.817,0.503,1.562,1.124,2.335,1.698c1.085,0.886,2.216,1.722,3.242,2.67
			c0.886,0.82,1.764,0.854,2.847,0.335c-1.191-0.946-2.294-1.889-3.467-2.729c-0.844-0.605-1.227-1.216-0.521-2.145
			c0.228,0.088,0.454,0.178,0.681,0.268c1.733,1.423,3.466,2.847,5.199,4.271c-0.089,0.437-0.176,0.873-0.266,1.31
			c-0.616,0.262-1.314,0.417-1.828,0.813c-0.669,0.516-1.217,0.712-1.963,0.192c-0.604-0.421-0.972-0.197-0.988,0.55
			c-0.177,0.011-0.354,0.022-0.53,0.031c-1.285-0.077-2.571-0.175-3.857-0.208c-0.128-0.004-0.266,0.376-0.399,0.576
			c-0.353,0.027-0.706,0.054-1.061,0.083c-0.894-0.612-1.772-0.542-2.64,0.055c-0.71,0.008-1.42,0.013-2.13,0.019
			c-1.835-0.124-3.67-0.256-5.508-0.356c-0.1-0.006-0.214,0.246-0.321,0.379c-2.488,2.874-4.513,6.004-5.173,9.826
			c-0.574,3.331-0.13,6.637,0.791,9.821c1.909,6.6,4.009,13.143,6.029,19.709c0.208,0.675,0.406,1.352,0.608,2.028
			c-2.188,0.435-4.359,1.007-6.568,1.281c-12.416,1.542-24.441-0.021-36.04-4.732C42.443,137.909,37.367,135.111,32.693,131.604z
			 M90.765,44.204c-1.282-1.459-2.39-2.834-3.616-4.093c-3.661-3.751-7.6-7.142-12.651-8.906c-5.335-1.864-10.224-0.991-14.703,2.5
			c6.721,8.017,9.164,17.264,8.381,27.594c5.846-2.657,11.485-5.22,17.172-7.805c-0.702-1.479-1.344-2.826-1.983-4.177
			c-0.671-1.418-0.53-1.797,0.922-2.409C86.354,46.038,88.428,45.179,90.765,44.204z M91.422,46.874
			c-1.744,0.725-3.339,1.389-5.032,2.093c2.248,4.953,4.421,9.739,6.626,14.595c1.66-0.842,3.14-1.593,4.689-2.38
			C95.596,56.38,93.545,51.709,91.422,46.874z M108.67,99.705c0.142-0.041,0.282-0.081,0.424-0.123
			c-0.134-0.268-0.266-0.535-0.399-0.803c-0.098,0.043-0.196,0.082-0.296,0.124C108.489,99.171,108.579,99.438,108.67,99.705z"/>
		<path fill-rule="evenodd" clip-rule="evenodd" fill="#193645" d="M109.425,100.04c0.09-0.437,0.177-0.873,0.266-1.31
			c0.403-0.217,0.805-0.433,1.37-0.736c-1.17-0.936-2.146-1.605-2.974-2.426c-0.395-0.392-0.507-1.069-0.747-1.617
			c0.424-0.01,0.846-0.018,1.27-0.027c0.82,0.737,1.642,1.476,2.518,2.264c0.742-1.894-0.629-2.406-1.6-3.148l-0.005,0.013
			c-0.112-0.085-0.224-0.171-0.337-0.257c-0.176-0.504-0.35-1.008-0.525-1.513c0.528,0.117,1.074,0.184,1.578,0.368
			c0.336,0.124,0.61,0.414,0.913,0.629c0.106-0.047,0.214-0.094,0.32-0.14c-0.818-3.967-1.576-7.945-2.504-11.885
			c-0.197-0.84-1.014-1.532-1.546-2.293c-0.322-0.574-1.473-0.934-0.699-1.785c0.458-0.505,1.257-0.701,1.919-1.045
			c-0.321-0.581-0.588-1.061-0.854-1.541c0.017-0.122,0.034-0.245,0.051-0.368c0.702,0.712,2.352,1.012,1.09,2.583
			c-0.147,0.186-0.022,0.588-0.024,0.889c-0.001,0.17-0.003,0.34-0.005,0.511c0.007,0.132-0.032,0.288,0.025,0.391
			c1.039,1.837,1.565,3.804,1.573,5.915c0.001,0.253,0.104,0.506,0.161,0.758c0.296,1.329,0.623,2.653,0.874,3.99
			c0.128,0.682,0.116,1.389,0.173,2.083c0.148,1.811,0.343,3.619,0.437,5.436c0.065,1.259-0.417,2.324-0.995,3.485
			C110.619,100.321,110.363,100.538,109.425,100.04z"/>
		<path fill-rule="evenodd" clip-rule="evenodd" fill="#0B3C57" d="M109.425,100.04c0.938,0.498,1.194,0.281,1.723-0.777
			c0.578-1.161,1.061-2.227,0.995-3.485c-0.094-1.816-0.288-3.625-0.437-5.436c-0.057-0.694-0.045-1.401-0.173-2.083
			c-0.251-1.337-0.578-2.661-0.874-3.99c-0.057-0.252-0.16-0.505-0.161-0.758c-0.008-2.111-0.534-4.078-1.573-5.915
			c-0.058-0.103-0.019-0.259-0.025-0.391c0.521,0.771,1.347,1.482,1.517,2.325c0.907,4.518,1.438,9.123,2.581,13.574
			c0.359,1.393,0.4,2.368-0.128,3.565c-0.113,0.256,0.1,0.684,0.222,1.008c0.166,0.443,0.389,0.863,0.587,1.292
			c-0.487,0.086-0.975,0.171-1.463,0.256c-0.096-0.105-0.192-0.21-0.289-0.315c-0.173,0.52-0.251,1.103-0.549,1.538
			c-0.205,0.301-0.848,0.652-1.058,0.541c-1.151-0.623-1.949-0.178-2.75,0.621c-0.203,0.202-0.602,0.315-0.897,0.294
			c-0.68-0.045-1.353-0.199-2.026-0.31c0.017-0.747,0.385-0.971,0.988-0.55c0.746,0.52,1.294,0.323,1.963-0.192
			C108.11,100.457,108.809,100.302,109.425,100.04z"/>
		<path fill-rule="evenodd" clip-rule="evenodd" fill="#0C3D57" d="M108.904,76.694c0.002-0.301-0.123-0.703,0.024-0.889
			c1.262-1.571-0.388-1.871-1.09-2.583c0.163-0.966-0.289-1.62-0.955-2.292c-1.986-2-1.812-2.443,0.284-4.284
			c1.273-1.12,2.597-2.312,3.191-4.07c0.602-1.783-0.646-3.99-2.523-4.213c-0.531-0.175-1.063-0.351-1.596-0.527l0,0
			c-0.359-0.646-0.667-1.327-1.098-1.921c-0.233-0.322-0.674-0.493-1.022-0.733l-0.003-0.002c0.182-0.45,0.36-0.898,0.542-1.349
			c0.151,0.264,0.356,0.509,0.444,0.792c0.499,1.638,1.313,2.669,3.227,3.068c2.35,0.491,3.274,2.945,2.519,5.388
			c-0.565,1.831-1.827,3.061-3.327,4.117c-0.499,0.353-1.001,0.706-1.581,1.113c1.239,1.794,2.458,3.554,3.675,5.316
			C110.595,75.048,110.421,75.795,108.904,76.694z"/>
		<path fill-rule="evenodd" clip-rule="evenodd" fill="#0B3C57" d="M99.858,101.994c0.134-0.2,0.271-0.58,0.399-0.576
			c1.286,0.033,2.572,0.131,3.857,0.208C102.696,101.749,101.277,101.871,99.858,101.994z"/>
		<path fill-rule="evenodd" clip-rule="evenodd" fill="#0B3C57" d="M88.199,102.173c0.107-0.133,0.222-0.385,0.321-0.379
			c1.838,0.101,3.673,0.232,5.508,0.356C92.086,102.158,90.142,102.166,88.199,102.173z"/>
		<path fill-rule="evenodd" clip-rule="evenodd" fill="#0B3C57" d="M96.158,102.132c0.867-0.597,1.746-0.667,2.64-0.055
			C97.918,102.094,97.038,102.113,96.158,102.132z"/>
		<path fill-rule="evenodd" clip-rule="evenodd" fill="#E2CEC8" d="M107.422,77.962c0.532,0.761,1.349,1.453,1.546,2.293
			c0.928,3.939,1.686,7.918,2.504,11.885c-0.106,0.046-0.214,0.093-0.32,0.14c-0.303-0.215-0.577-0.505-0.913-0.629
			c-0.504-0.185-1.05-0.251-1.578-0.368c0.176,0.505,0.35,1.009,0.525,1.513c0.113,0.086,0.225,0.172,0.337,0.257
			c0,0,0.005-0.013,0.005-0.012c-0.306,0.294-0.611,0.589-0.918,0.884c-0.424,0.01-0.846,0.018-1.27,0.027
			c-0.489,0.238-0.978,0.475-1.712,0.831c-0.161-0.046-0.649-0.184-1.137-0.322c-0.227-0.09-0.453-0.18-0.68-0.268
			c-0.55-0.16-0.822-0.023-0.766,0.617c0.049,0.54,0.01,1.086,0.01,1.732c-0.515-0.239-0.785-0.366-1.056-0.492
			c0.01-1.428-1.351-1.558-2.16-2.061c-0.966-0.599-2.19-0.775-3.296-1.156c-0.398-0.138-0.778-0.34-1.167-0.512
			c-0.37-1.756-1.415-2.568-3.438-2.669c-0.181-0.162-0.384-0.48-0.54-0.458c-1.083,0.151-1.721-0.451-2.408-1.15
			c-0.307-0.313-0.93-0.312-1.409-0.452c-1.187-0.911-2.35-1.855-3.572-2.714c-0.396-0.279-0.947-0.338-1.428-0.499
			c-0.313-0.22-0.625-0.439-1.039-0.732c-0.193,0.115-0.514,0.304-0.835,0.492c-0.152-0.047-0.332-0.06-0.455-0.148
			c-1.135-0.813-2.229-1.687-3.405-2.434c-0.345-0.22-0.912-0.09-1.377-0.118c0.153,0.426,0.195,0.958,0.482,1.254
			c0.573,0.594,1.28,1.056,1.932,1.573c-0.012,0.302-0.025,0.604-0.037,0.905l-0.008,0.007c-0.202,0.578-0.404,1.155-0.61,1.747
			c-0.414-0.156-0.72-0.272-1.025-0.388c-0.685-0.932-1.286-1.944-2.086-2.761c-0.39-0.396-1.147-0.573-1.749-0.599
			c-5.041-0.219-9.877-1.251-14.386-3.567c-3.609-1.855-6.516-4.372-7.588-8.511c-0.547-2.112-0.438-4.217,0.182-6.275
			c1.068-3.546,4.54-5.366,8.449-4.501c2.829,0.627,5.155,2.072,6.799,4.464c0.729,1.063,1.424,1.144,2.544,0.629
			c6.159-2.829,12.349-5.591,18.652-8.431c1.273,2.646,2.532,5.253,3.782,7.864c0.938,1.958,1.166,2.05,3.107,1.183
			c1.811-0.808,3.608-1.642,5.431-2.416c1.118-0.475,1.423-1.103,0.877-2.271c-0.759-1.628-1.354-3.332-2.021-5.004
			c0.028-0.035,0.058-0.069,0.086-0.103c1.061,0.534,2.122,1.067,3.183,1.602c1.765,0.333,3.529,0.675,5.297,0.996
			c1.175,0.212,2.311,0.549,2.653,1.844c0.363,1.369-0.009,2.656-1.048,3.626c-0.99,0.926-2.017,1.86-3.167,2.558
			c-1.144,0.694-1.361,1.369-0.56,2.403c-0.195,0.354-0.389,0.709-0.585,1.064c-1.164-1.247-1.572-1.206-2.035,0.206
			c-0.187,0.468-0.374,0.935-0.56,1.404c-0.044,0.052-0.091,0.054-0.139,0.007c-0.134,0.149-0.268,0.299-0.4,0.447
			c-0.021,0.104-0.041,0.206-0.062,0.311c-0.405,0.32-0.771,0.836-1.225,0.927c-1.285,0.258-1.389,0.906-1.013,1.508
			c-0.563,0.762-1.449,1.477-1.325,1.893c0.319,1.083,1.082,2.037,1.668,3.042c0.106-0.06,0.214-0.119,0.32-0.18
			c0.017-0.166,0.032-0.333,0.048-0.501c0.18,0.009,0.357,0.02,0.537,0.027c0.039,0.181,0.079,0.361,0.12,0.54
			c0.079,0,0.16,0,0.239-0.001c0.051-0.313,0.102-0.623,0.151-0.935c-0.014-0.242-0.026-0.485-0.04-0.728
			c1.549,0.463,2.286,0.75,2.952-1.775c0.533,0.091,1.07,0.183,1.936,0.327c-0.445-0.778-0.709-1.239-0.973-1.7
			c-0.053-0.094-0.104-0.188-0.157-0.28c0.12-0.387,0.24-0.771,0.36-1.157c0.249,0.344,0.498,0.688,0.746,1.032
			c0.036,0.312-0.008,0.661,0.12,0.928c0.322,0.667,0.723,1.297,1.091,1.942c-0.105,0.115-0.211,0.231-0.316,0.348
			C106.541,77.962,106.982,77.962,107.422,77.962z"/>
		<path fill-rule="evenodd" clip-rule="evenodd" fill="#E3CEC8" d="M83.375,126.568c0.206,0.66,0.411,1.32,0.712,2.287
			c-2.554-1.104-4.846-2.06-7.109-3.08c-6.626-2.986-12.994-6.432-18.337-11.437c-2.112-1.979-3.855-4.353-5.782-6.53
			c-0.578-0.655-0.438-1.161,0.053-1.834c3.283-4.499,6.453-9.08,8.5-14.304c0.751-1.915,1.244-3.933,1.948-6.2
			c1.844,0,3.947,0.266,5.947-0.073c2.055-0.349,3.248,0.057,4.539,1.808c1.329,1.801,3.345,3.094,5.061,4.609
			c0.109,0.07,0.22,0.143,0.33,0.214l-0.014-0.022c0.04,0.251,0.001,0.666,0.13,0.727c0.932,0.438,1.874,0.892,2.861,1.172
			c0.87,0.247,1.297-0.196,1.213-1.15c-0.075-0.871-0.044-1.753-0.059-2.629c-0.203-0.407-0.324-0.892-0.624-1.204
			c-0.513-0.534-1.136-0.961-1.713-1.433c-0.027-0.517-0.055-1.033-0.081-1.55c0.04-0.167,0.08-0.335,0.118-0.502
			c0.442-0.088,0.883-0.178,1.325-0.266c0.061,0.043,0.07,0.096,0.025,0.155c-0.118,0.849-0.214,1.552,0.947,1.916
			c0.791,0.249,1.417,1.023,2.13,1.574c-0.544,0.37-1.125,0.556-1.198,0.863c-0.138,0.572-0.203,1.385,0.105,1.79
			c0.496,0.653,1.319,1.056,2.178,1.693c-0.601,0.402-0.963,0.535-1.144,0.796c-0.174,0.248-0.323,0.829-0.208,0.921
			c1.396,1.117,0.325,2.015-0.164,3.018c-0.451,0.927-0.74,1.934-1.134,2.89c-0.372,0.9-0.788,1.781-1.185,2.672
			c-0.109-0.048-0.218-0.094-0.328-0.141c-0.255,1.501-0.438,3.018-0.778,4.498c-0.516,2.252-1.082,4.482-0.888,6.828
			c0.063,0.745-0.082,1.513,0.029,2.246c0.244,1.602,0.589,3.188,0.899,4.78c0.218,1.123,0.578,2.239,0.631,3.368
			C82.351,125.885,82.595,126.352,83.375,126.568z"/>
		<path fill-rule="evenodd" clip-rule="evenodd" fill="#E2CEC9" d="M90.765,44.204c-2.337,0.975-4.41,1.833-6.479,2.704
			c-1.452,0.612-1.593,0.991-0.922,2.409c0.64,1.351,1.281,2.698,1.983,4.177c-5.688,2.585-11.326,5.148-17.172,7.805
			c0.782-10.33-1.661-19.577-8.381-27.594c4.479-3.491,9.368-4.364,14.703-2.5c5.052,1.764,8.99,5.155,12.651,8.906
			C88.375,41.37,89.482,42.745,90.765,44.204z"/>
		<path fill-rule="evenodd" clip-rule="evenodd" fill="#D4CCCB" d="M83.375,126.568c-0.78-0.217-1.024-0.684-1.063-1.529
			c-0.053-1.129-0.413-2.245-0.631-3.368c-0.311-1.592-0.655-3.179-0.899-4.78c-0.111-0.733,0.034-1.501-0.029-2.246
			c-0.194-2.346,0.372-4.576,0.888-6.828c0.34-1.48,0.523-2.997,0.778-4.498c0.11,0.047,0.219,0.093,0.328,0.141
			c0.396-0.891,0.813-1.771,1.185-2.672c0.394-0.956,0.683-1.963,1.134-2.89c0.489-1.003,1.56-1.9,0.164-3.018
			c-0.115-0.092,0.034-0.673,0.208-0.921c0.181-0.261,0.543-0.394,1.144-0.796c-0.858-0.638-1.682-1.04-2.178-1.693
			c-0.309-0.405-0.243-1.218-0.105-1.79c0.073-0.308,0.654-0.493,1.198-0.863c-0.713-0.551-1.339-1.325-2.13-1.574
			c-1.161-0.364-1.065-1.067-0.947-1.915c1.762,1.457,3.509,2.937,5.31,4.345c0.226,0.176,0.748-0.027,1.132-0.053
			c-0.069-0.351-0.048-0.768-0.234-1.036c-0.268-0.386-0.688-0.666-1.044-0.991c0.479,0.141,1.103,0.14,1.409,0.452
			c0.688,0.699,1.325,1.302,2.408,1.15c0.156-0.022,0.359,0.296,0.54,0.458l-0.054,0.06c-0.423,0.083-0.846,0.167-1.268,0.251
			c0.16,0.372,0.222,0.863,0.499,1.096c1.487,1.252,3.009,2.464,4.567,3.622c0.264,0.197,0.769,0.068,1.162,0.089
			c-0.082-0.415-0.047-0.917-0.273-1.229c-0.327-0.446-0.845-0.757-1.282-1.124l0.088-0.096c0.387,0.172,0.767,0.374,1.165,0.512
			c1.105,0.381,2.33,0.558,3.296,1.156c0.81,0.503,2.17,0.633,2.16,2.061c-0.097,0.004-0.194,0.008-0.29,0.012
			c-0.773-0.574-1.518-1.195-2.335-1.698c-0.29-0.179-0.761-0.067-1.148-0.089c0.091,0.406,0.046,0.974,0.3,1.192
			c1.491,1.293,3.053,2.505,4.589,3.744c0.03,0.025,0.066,0.084,0.056,0.107c-0.029,0.067-0.082,0.127-0.125,0.188
			c-1.407-0.274-2.813-0.548-4.221-0.822l0.008,0.007c-1.776-1.439-3.531-2.902-5.346-4.29c-0.287-0.221-0.835-0.102-1.261-0.14
			c0.104,0.413,0.124,0.879,0.336,1.227c0.192,0.319,0.592,0.515,0.901,0.763c1.062,0.851,2.124,1.699,3.433,2.746
			c-1.475-0.11-2.568-0.193-3.662-0.276l-0.107-0.039l-0.115,0.006c-0.368-0.252-0.737-0.506-1.105-0.758
			c-1.435-1.164-2.845-2.363-4.328-3.463c-0.314-0.232-0.9-0.101-1.362-0.136c0.171,0.433,0.227,0.99,0.534,1.274
			c0.897,0.834,1.897,1.557,2.802,2.548c-0.82-0.132-1.645-0.372-2.461-0.353c-0.498,0.012-1.262,0.294-1.439,0.675
			c-2.584,5.495-4.756,11.169-4.295,17.352c0.253,3.396,1.246,6.733,1.905,10.1C83.304,126.139,83.337,126.354,83.375,126.568z
			 M91.305,94.608c-0.243-0.476-0.282-0.678-0.405-0.776c-1.751-1.41-3.505-2.821-5.298-4.18c-0.155-0.119-0.74,0.046-0.861,0.242
			c-0.128,0.21-0.062,0.755,0.123,0.909c1.663,1.385,3.35,2.744,5.089,4.028C90.183,95.003,90.753,94.711,91.305,94.608z"/>
		<path fill-rule="evenodd" clip-rule="evenodd" fill="#8BD6F9" d="M91.422,46.874c2.123,4.835,4.174,9.507,6.283,14.308
			c-1.55,0.787-3.029,1.538-4.689,2.38c-2.205-4.855-4.378-9.642-6.626-14.595C88.083,48.262,89.678,47.599,91.422,46.874z"/>
		<path fill-rule="evenodd" clip-rule="evenodd" fill="#ED8091" d="M96.175,46.697c-0.06-0.04-0.083-0.095-0.071-0.165
			c-0.319-1.14,0.293-1.87,1.104-2.514l-0.009,0.005c0.377,0.175,0.752,0.35,1.128,0.525c1.182,2.548,2.359,5.098,3.545,7.644
			c0.184,0.393,0.403,0.769,0.606,1.154c0.427,1.099,0.854,2.199,1.337,3.44c-1.658-0.188-3.091-0.625-3.87-2.075
			c-0.831-1.547-1.483-3.19-2.213-4.792c0.014-0.974,0.191-2.026-1.12-2.375c0,0,0.011,0,0.011,0
			C96.473,47.263,96.323,46.98,96.175,46.697z"/>
		<path fill-rule="evenodd" clip-rule="evenodd" fill="#183342" d="M97.731,49.92c0.729,1.602,1.382,3.244,2.213,4.792
			c0.779,1.45,2.212,1.887,3.87,2.075c-0.482-1.241-0.91-2.341-1.337-3.44c0.547,0.611,1.094,1.223,1.64,1.834l0.003,0.002
			c0.012,0.674-0.028,1.355,0.066,2.018c0.033,0.234,0.367,0.551,0.612,0.603c0.461,0.098,0.959,0.032,1.441,0.034l0,0
			c0.532,0.176,1.064,0.352,1.596,0.527c1.878,0.223,3.125,2.43,2.523,4.213c-0.595,1.758-1.918,2.95-3.191,4.07
			c-2.096,1.841-2.271,2.284-0.284,4.284c0.666,0.671,1.118,1.325,0.955,2.292c-0.017,0.123-0.034,0.247-0.051,0.368
			c-1.049-1.442-2.099-2.883-3.146-4.325c-0.802-1.034-0.584-1.708,0.56-2.403c1.15-0.698,2.177-1.632,3.167-2.558
			c1.039-0.97,1.411-2.257,1.048-3.626c-0.343-1.294-1.479-1.632-2.653-1.844c-1.768-0.321-3.532-0.664-5.297-0.996
			c0.538,0,1.079,0,1.619,0c0.046-0.1,0.092-0.199,0.136-0.299c-4.243-1.169-5.211-4.636-5.986-8.235
			C97.4,49.51,97.566,49.715,97.731,49.92z"/>
		<path fill-rule="evenodd" clip-rule="evenodd" fill="#D1CBCB" d="M83.368,90.125c0.015,0.876-0.017,1.758,0.059,2.629
			c0.084,0.954-0.343,1.397-1.213,1.15c-0.987-0.28-1.93-0.733-2.861-1.172c-0.129-0.061-0.09-0.476-0.13-0.727
			c0.788,0.39,1.557,0.829,2.372,1.143c0.346,0.133,0.792,0.001,1.192-0.01c-0.102-0.415-0.205-0.83-0.307-1.245
			c0.099-0.118,0.197-0.236,0.296-0.354c-0.327,0.015-0.653,0.028-0.979,0.043c-2.306-1.193-4.327-2.702-5.596-5.046
			c0.308,0.115,0.613,0.231,1.027,0.388c0.206-0.592,0.408-1.169,0.61-1.747c0.036,0.019,0.072,0.035,0.109,0.055
			c-0.034-0.021-0.068-0.041-0.102-0.062c0.012-0.302,0.025-0.604,0.037-0.905c1.021,0.559,2.043,1.115,3.065,1.673
			c0.026,0.517,0.054,1.033,0.081,1.55c-0.525-0.394-1.014-0.865-1.592-1.156c-0.347-0.174-0.835-0.066-1.26-0.084
			c0.123,0.411,0.119,0.963,0.393,1.208c1.047,0.94,2.144,1.84,3.309,2.623C82.229,90.313,82.863,90.121,83.368,90.125z"/>
		<path fill-rule="evenodd" clip-rule="evenodd" fill="#1C3A46" d="M93.234,98.721c1.094,0.083,2.188,0.166,3.662,0.276
			c-1.309-1.047-2.371-1.896-3.433-2.746c-0.31-0.248-0.709-0.443-0.901-0.763c-0.212-0.348-0.232-0.813-0.336-1.227
			c0.426,0.038,0.974-0.081,1.261,0.14c1.814,1.388,3.569,2.851,5.346,4.29c-0.663,0.297-1.322,0.599-1.988,0.887
			c-0.192,0.084-0.415,0.204-0.6,0.174c-0.954-0.158-1.902-0.348-2.844-0.564C93.314,99.168,93.288,98.883,93.234,98.721z"/>
		<path fill-rule="evenodd" clip-rule="evenodd" fill="#D1CCCC" d="M104.491,94.46c0.487,0.139,0.976,0.276,1.137,0.322
			c0.734-0.356,1.223-0.593,1.712-0.831c0.24,0.548,0.353,1.226,0.747,1.617c0.827,0.82,1.804,1.49,2.974,2.426
			c-0.565,0.304-0.967,0.52-1.37,0.736C107.957,97.307,106.225,95.883,104.491,94.46z"/>
		<path fill-rule="evenodd" clip-rule="evenodd" fill="#D0CCCB" d="M101.71,96.062c0.096-0.004,0.193-0.008,0.29-0.012
			c0.271,0.126,0.541,0.253,1.056,0.492c0-0.646,0.039-1.192-0.01-1.732c-0.057-0.641,0.216-0.777,0.766-0.617
			c-0.706,0.929-0.323,1.539,0.521,2.145c1.173,0.841,2.275,1.783,3.467,2.729c-1.083,0.52-1.961,0.485-2.847-0.335
			C103.926,97.783,102.795,96.947,101.71,96.062z"/>
		<path fill-rule="evenodd" clip-rule="evenodd" fill="#1C3A46" d="M98.825,98.685c1.407,0.274,2.813,0.548,4.221,0.822
			c-1.197,0.16-2.394,0.382-3.595,0.42C99.256,99.933,99.034,99.119,98.825,98.685z"/>
		<path fill-rule="evenodd" clip-rule="evenodd" fill="#CE899E" d="M97.207,44.019c-0.811,0.645-1.423,1.374-1.104,2.514
			c-0.292-0.552-0.584-1.104-0.949-1.794C95.945,44.461,96.576,44.24,97.207,44.019z"/>
		<path fill-rule="evenodd" clip-rule="evenodd" fill="#D78297" d="M97.731,49.92c-0.165-0.205-0.331-0.41-0.497-0.616
			c-0.208-0.586-0.415-1.173-0.623-1.759C97.923,47.895,97.745,48.946,97.731,49.92z"/>
		<path fill-rule="evenodd" clip-rule="evenodd" fill="#1C3A46" d="M91.906,97.93c0.368,0.252,0.737,0.506,1.105,0.758
			C92.153,99.15,91.912,98.714,91.906,97.93z"/>
		<path fill-rule="evenodd" clip-rule="evenodd" fill="#0B3C57" d="M108.67,99.705c-0.091-0.267-0.181-0.534-0.271-0.802
			c0.1-0.042,0.198-0.081,0.296-0.124c0.134,0.268,0.266,0.535,0.399,0.803C108.952,99.624,108.812,99.664,108.67,99.705z"/>
		<path fill-rule="evenodd" clip-rule="evenodd" fill="#CE899E" d="M98.326,44.549c-0.376-0.175-0.751-0.35-1.128-0.525
			C97.918,43.462,98.218,43.799,98.326,44.549z"/>
		<path fill-rule="evenodd" clip-rule="evenodd" fill="#E3CEC8" d="M81.798,91.583c0.325-0.015,0.651-0.028,0.979-0.043
			c-0.099,0.117-0.197,0.235-0.296,0.354C82.253,91.789,82.025,91.687,81.798,91.583z"/>
		<path fill-rule="evenodd" clip-rule="evenodd" fill="#D78297" d="M96.175,46.697c0.148,0.283,0.298,0.565,0.447,0.849
			C96.473,47.263,96.323,46.98,96.175,46.697z"/>
		<path fill-rule="evenodd" clip-rule="evenodd" fill="#E2CEC8" d="M98.197,56.34c-0.019-0.062-0.037-0.123-0.055-0.184
			c0.047,0.027,0.095,0.054,0.141,0.082C98.255,56.271,98.226,56.305,98.197,56.34z"/>
		<path fill-rule="evenodd" clip-rule="evenodd" fill="#D1CBCB" d="M79.236,92.028c-0.11-0.071-0.221-0.144-0.33-0.214
			C79.016,91.885,79.126,91.957,79.236,92.028z"/>
		<path fill-rule="evenodd" clip-rule="evenodd" fill="#D0CDCC" d="M104.642,69.266c1.048,1.442,2.098,2.883,3.146,4.325
			c0.266,0.48,0.532,0.96,0.854,1.541c-0.662,0.344-1.461,0.54-1.919,1.045c-0.773,0.852,0.377,1.211,0.699,1.785
			c-0.439,0-0.881,0-1.32,0c0.105-0.116,0.211-0.232,0.316-0.348c-0.368-0.646-0.769-1.275-1.091-1.942
			c-0.128-0.267-0.084-0.616-0.12-0.928c0.393,0.009,0.786,0.019,1.179,0.028c-0.038-0.399,0.051-0.875-0.136-1.183
			c-0.681-1.118-1.454-2.178-2.193-3.26C104.253,69.976,104.446,69.621,104.642,69.266z"/>
		<path fill-rule="evenodd" clip-rule="evenodd" fill="#CBCACB" d="M108.609,93.924c0.307-0.295,0.612-0.59,0.918-0.884
			c0.971,0.741,2.342,1.254,1.6,3.147C110.251,95.399,109.43,94.661,108.609,93.924z"/>
		<path fill-rule="evenodd" clip-rule="evenodd" fill="#CBCACB" d="M109.522,93.052c-0.112-0.085-0.224-0.171-0.337-0.257
			C109.299,92.881,109.41,92.967,109.522,93.052z"/>
		<path fill-rule="evenodd" clip-rule="evenodd" fill="#0E3449" d="M106.24,57.837c-0.482-0.002-0.98,0.064-1.441-0.034
			c-0.245-0.052-0.579-0.369-0.612-0.603c-0.095-0.663-0.055-1.344-0.066-2.018c0.349,0.241,0.789,0.411,1.022,0.733
			C105.573,56.511,105.881,57.191,106.24,57.837z"/>
		<path fill-rule="evenodd" clip-rule="evenodd" fill="#0E3449" d="M107.836,58.365c-0.531-0.175-1.063-0.351-1.596-0.527
			C106.772,58.014,107.305,58.189,107.836,58.365z"/>
		<path fill-rule="evenodd" clip-rule="evenodd" fill="#CFCCCE" d="M104.258,75.149c0.264,0.461,0.527,0.922,0.973,1.7
			c-0.865-0.145-1.402-0.236-1.936-0.327c-0.666,2.525-1.403,2.238-2.952,1.775c-0.345-0.452-0.632-0.97-1.052-1.334
			c-0.309-0.267-0.79-0.331-1.193-0.486c0.005,0.458-0.133,0.985,0.049,1.354c0.281,0.577,0.781,1.047,1.188,1.562
			c-0.016,0.168-0.031,0.335-0.048,0.501c-0.106,0.061-0.214,0.12-0.32,0.18c-0.586-1.005-1.349-1.959-1.668-3.042
			c-0.124-0.416,0.763-1.131,1.325-1.893c-0.376-0.603-0.272-1.25,1.013-1.508c0.453-0.091,0.819-0.607,1.225-0.928
			c0.628,0.98,1.226,1.982,1.902,2.927c0.191,0.268,0.619,0.364,0.939,0.538C103.888,75.83,104.072,75.488,104.258,75.149z
			 M102.483,77.083c-0.821-1.03-1.605-2.044-2.446-3.01c-0.076-0.088-0.618,0.063-0.76,0.245c-0.138,0.181-0.15,0.611-0.023,0.812
			c0.533,0.846,1.109,1.674,1.744,2.448c0.158,0.195,0.606,0.241,0.9,0.205C102.069,77.761,102.203,77.438,102.483,77.083z"/>
		<path fill-rule="evenodd" clip-rule="evenodd" fill="#1D3745" d="M87.582,87.592c0.355,0.325,0.776,0.605,1.044,0.991
			c0.187,0.269,0.165,0.686,0.234,1.036c-0.384,0.025-0.906,0.229-1.132,0.053c-1.801-1.408-3.548-2.888-5.31-4.345
			c0.045-0.061,0.035-0.113-0.025-0.156c0.063-0.265,0.126-0.527,0.188-0.792c0.48,0.161,1.032,0.22,1.428,0.499
			C85.232,85.736,86.396,86.681,87.582,87.592z"/>
		<path fill-rule="evenodd" clip-rule="evenodd" fill="#1E3846" d="M80.95,85.938c-1.022-0.558-2.044-1.114-3.065-1.673
			c-0.651-0.518-1.358-0.979-1.932-1.573c-0.287-0.296-0.329-0.828-0.482-1.254c0.465,0.028,1.032-0.102,1.377,0.118
			c1.176,0.747,2.271,1.621,3.405,2.434c0.123,0.089,0.303,0.102,0.455,0.148c0.121,0.433,0.241,0.864,0.36,1.298
			C81.03,85.604,80.99,85.771,80.95,85.938z"/>
		<path fill-rule="evenodd" clip-rule="evenodd" fill="#1E3846" d="M104.057,70.33c0.739,1.082,1.513,2.142,2.193,3.26
			c0.187,0.308,0.098,0.783,0.136,1.183c-0.393-0.01-0.786-0.02-1.179-0.028c-0.248-0.344-0.497-0.688-0.745-1.031
			c-0.814-1.06-1.627-2.118-2.44-3.177C102.484,69.124,102.893,69.083,104.057,70.33z"/>
		<path fill-rule="evenodd" clip-rule="evenodd" fill="#1E3846" d="M104.258,75.149c-0.186,0.339-0.37,0.681-0.555,1.019
			c-0.32-0.174-0.748-0.271-0.939-0.538c-0.677-0.944-1.274-1.947-1.902-2.927c0.021-0.104,0.041-0.206,0.062-0.31
			c0.133-0.147,0.267-0.297,0.4-0.447c0.048,0.047,0.095,0.045,0.139-0.007c0.88,0.975,1.759,1.953,2.639,2.929
			C104.153,74.962,104.205,75.056,104.258,75.149z"/>
		<path fill-rule="evenodd" clip-rule="evenodd" fill="#213645" d="M99.335,79.394c-0.407-0.515-0.907-0.984-1.188-1.562
			c-0.182-0.369-0.044-0.896-0.049-1.354c0.403,0.155,0.885,0.22,1.193,0.486c0.42,0.364,0.707,0.882,1.052,1.334
			c0.014,0.242,0.026,0.485,0.04,0.728c-0.171,0.133-0.341,0.265-0.511,0.396C99.692,79.413,99.515,79.402,99.335,79.394z"/>
		<path fill-rule="evenodd" clip-rule="evenodd" fill="#CCC8CB" d="M104.101,74.869c-0.88-0.976-1.759-1.954-2.639-2.929
			c0.186-0.469,0.373-0.936,0.56-1.404c0.813,1.059,1.626,2.117,2.44,3.177C104.341,74.099,104.221,74.482,104.101,74.869z"/>
		<path fill-rule="evenodd" clip-rule="evenodd" fill="#D4CCCB" d="M91.939,89.652c2.022,0.101,3.067,0.913,3.438,2.669
			c0.002,0-0.086,0.096-0.086,0.096c-1.136-0.902-2.271-1.803-3.405-2.705L91.939,89.652z"/>
		<path fill-rule="evenodd" clip-rule="evenodd" fill="#D4CCCB" d="M81.068,85.437c-0.119-0.434-0.239-0.865-0.36-1.298
			c0.321-0.188,0.642-0.377,0.835-0.492c0.414,0.293,0.727,0.513,1.039,0.732c-0.063,0.265-0.125,0.527-0.188,0.792
			C81.951,85.259,81.511,85.349,81.068,85.437z"/>
		<path fill-rule="evenodd" clip-rule="evenodd" fill="#CFCCCE" d="M99.872,79.421c0.17-0.131,0.34-0.263,0.511-0.396
			c-0.05,0.312-0.101,0.622-0.151,0.935c-0.079,0.001-0.16,0.001-0.239,0.001C99.951,79.782,99.911,79.602,99.872,79.421z"/>
		<path fill-rule="evenodd" clip-rule="evenodd" fill="#CCC8CB" d="M101.323,71.947c-0.134,0.149-0.268,0.299-0.4,0.447
			C101.056,72.246,101.189,72.096,101.323,71.947z"/>
		<path fill-rule="evenodd" clip-rule="evenodd" fill="#1D3847" d="M83.368,90.125c-0.505-0.004-1.139,0.188-1.487-0.046
			c-1.165-0.783-2.262-1.683-3.309-2.623c-0.273-0.245-0.27-0.797-0.393-1.208c0.425,0.018,0.913-0.09,1.26,0.084
			c0.578,0.291,1.066,0.763,1.592,1.156c0.577,0.472,1.2,0.898,1.713,1.433C83.044,89.233,83.165,89.718,83.368,90.125z"/>
		<path fill-rule="evenodd" clip-rule="evenodd" fill="#1D3847" d="M91.305,94.608c-0.552,0.103-1.122,0.395-1.353,0.224
			c-1.739-1.284-3.426-2.644-5.089-4.028c-0.185-0.154-0.251-0.699-0.123-0.909c0.121-0.196,0.706-0.361,0.861-0.242
			c1.793,1.358,3.547,2.77,5.298,4.18C91.022,93.931,91.062,94.133,91.305,94.608z"/>
		<path fill-rule="evenodd" clip-rule="evenodd" fill="#1C3845" d="M91.886,89.712c1.135,0.902,2.27,1.803,3.405,2.705
			c0.438,0.367,0.955,0.678,1.282,1.124c0.227,0.312,0.191,0.813,0.273,1.229c-0.394-0.021-0.898,0.108-1.162-0.089
			c-1.559-1.158-3.08-2.37-4.567-3.622c-0.277-0.232-0.339-0.724-0.499-1.096C91.04,89.879,91.463,89.795,91.886,89.712z"/>
		<path fill-rule="evenodd" clip-rule="evenodd" fill="#E2CEC8" d="M77.848,85.171c0.033,0.021,0.067,0.04,0.102,0.062
			c-0.037-0.02-0.073-0.036-0.109-0.055L77.848,85.171z"/>
		<path fill-rule="evenodd" clip-rule="evenodd" fill="#213844" d="M102.483,77.083c-0.28,0.354-0.414,0.678-0.585,0.7
			c-0.294,0.036-0.742-0.01-0.9-0.205c-0.635-0.774-1.211-1.603-1.744-2.448c-0.127-0.2-0.114-0.631,0.023-0.812
			c0.142-0.183,0.684-0.333,0.76-0.245C100.878,75.039,101.662,76.053,102.483,77.083z"/>
	</g>
</g>
</svg>
